Coordinates
version=1
nRows=14
nColumns=40
inDegrees=yes

Units are S.I. units (second, meters, Newtons, ...)
If the header above contains a line with 'inDegrees', this indicates whether rotational values are in degrees (yes) or radians (no).

endheader
time	pelvis_tilt	pelvis_list	pelvis_rotation	pelvis_tx	pelvis_ty	pelvis_tz	hip_flexion_r	hip_adduction_r	hip_rotation_r	knee_angle_r	knee_angle_r_beta	ankle_angle_r	subtalar_angle_r	mtp_angle_r	hip_flexion_l	hip_adduction_l	hip_rotation_l	knee_angle_l	knee_angle_l_beta	ankle_angle_l	subtalar_angle_l	mtp_angle_l	lumbar_extension	lumbar_bending	lumbar_rotation	arm_flex_r	arm_add_r	arm_rot_r	elbow_flex_r	pro_sup_r	wrist_flex_r	wrist_dev_r	arm_flex_l	arm_add_l	arm_rot_l	elbow_flex_l	pro_sup_l	wrist_flex_l	wrist_dev_l
      0.38000000	     -0.09011576	      6.60360595	    -89.85745780	      0.24242842	      0.91778220	     -0.30394760	     15.50981941	     -7.27422818	     -8.27729741	     65.41242823	      1.14166224	     -6.73885090	      0.00000000	      0.00000000	     20.38150802	      2.69734907	      6.29530339	     20.22116111	      0.35292584	      7.48936919	      0.00000000	      0.00000000	     -4.04064771	     -1.45268420	     -5.39553457	      0.00000000	      0.00000000	      0.00000000	      0.00000000	      0.00000000	      0.00000000	      0.00000000	      0.00000000	      0.00000000	      0.00000000	      0.00000000	      0.00000000	      0.00000000	      0.00000000
      0.39000000	     -0.38602821	      6.99393146	    -89.85347285	      0.24272333	      0.92118464	     -0.28856839	     18.21550209	     -7.20211267	     -8.56732727	     65.80431817	      1.14850201	     -4.98134178	      0.00000000	      0.00000000	     18.76791060	      2.37077462	      6.53183697	     18.49398591	      0.32278095	      7.55609006	      0.00000000	      0.00000000	     -3.63085198	     -1.00650267	     -5.50953751	      0.00000000	      0.00000000	      0.00000000	      0.00000000	      0.00000000	      0.00000000	      0.00000000	      0.00000000	      0.00000000	      0.00000000	      0.00000000	      0.00000000	      0.00000000	      0.00000000
      0.40000000	     -0.69185939	      7.38696826	    -89.85073611	      0.24287403	      0.92415400	     -0.27322506	     20.77460718	     -7.07034472	     -8.90551464	     65.60084321	      1.14495071	     -3.41454429	      0.00000000	      0.00000000	     17.17387567	      2.02145255	      6.77026237	     16.77607328	      0.29279771	      7.62611296	      0.00000000	      0.00000000	     -3.22264080	     -0.57189145	     -5.60072787	      0.00000000	      0.00000000	      0.00000000	      0.00000000	      0.00000000	      0.00000000	      0.00000000	      0.00000000	      0.00000000	      0.00000000	      0.00000000	      0.00000000	      0.00000000	      0.00000000
      0.41000000	     -0.98471009	      7.75516636	    -89.84675251	      0.24293005	      0.92670136	     -0.25784684	     23.12817141	     -6.90485616	     -9.29734099	     64.83335364	      1.13155549	     -1.83807926	     -0.00000000	     -0.00000000	     15.54456281	      1.67939318	      6.99221616	     15.03354127	      0.26238479	      7.66304001	      0.00000000	     -0.00000000	     -2.83691686	     -0.15406372	     -5.68793477	     -0.00000000	      0.00000000	     -0.00000000	      0.00000000	      0.00000000	     -0.00000000	      0.00000000	      0.00000000	      0.00000000	      0.00000000	      0.00000000	      0.00000000	     -0.00000000	      0.00000000
      0.42000000	     -1.29632882	      8.02790644	    -89.84195419	      0.24288110	      0.92891414	     -0.24234066	     25.16573089	     -6.66624151	     -9.73394208	     63.51034011	      1.10846454	     -0.26250806	      0.00000000	      0.00000000	     13.81442941	      1.30463434	      7.23163610	     13.30181891	      0.23216054	      7.65938104	      0.00000000	      0.00000000	     -2.55302328	      0.28429049	     -5.74919218	      0.00000000	      0.00000000	      0.00000000	      0.00000000	      0.00000000	      0.00000000	      0.00000000	      0.00000000	      0.00000000	      0.00000000	      0.00000000	      0.00000000	      0.00000000	      0.00000000
      0.43000000	     -1.62465380	      8.07236716	    -89.83386949	      0.24270011	      0.93104333	     -0.22661014	     26.69741919	     -6.29946595	    -10.12555367	     61.57423364	      1.07467311	      1.15785947	      0.00000000	      0.00000000	     11.81628127	      0.88668779	      7.33444779	     11.53153893	      0.20126332	      7.66794535	      0.00000000	      0.00000000	     -2.53856015	      0.71245630	     -5.83363298	      0.00000000	      0.00000000	      0.00000000	      0.00000000	      0.00000000	      0.00000000	      0.00000000	      0.00000000	      0.00000000	      0.00000000	      0.00000000	      0.00000000	      0.00000000	      0.00000000
      0.44000000	     -1.98684373	      8.22043599	    -89.82508220	      0.24239886	      0.93243434	     -0.21106166	     28.18733025	     -5.82287141	    -10.48505102	     59.20300921	      1.03328744	      2.42832397	      0.00000000	      0.00000000	     10.01802871	      0.42571904	      7.45965697	      9.91029712	      0.17296731	      7.79649429	      0.00000000	      0.00000000	     -2.41858088	      1.17337723	     -5.88959598	      0.00000000	      0.00000000	      0.00000000	      0.00000000	      0.00000000	      0.00000000	      0.00000000	      0.00000000	      0.00000000	      0.00000000	      0.00000000	      0.00000000	      0.00000000	      0.00000000
      0.45000000	     -2.32880278	      8.34475047	    -89.81353251	      0.24200365	      0.93330596	     -0.19552228	     29.46749255	     -5.28372701	    -10.75740810	     56.40179807	      0.98439708	      3.61522561	     -0.00000000	     -0.00000000	      8.24781098	     -0.02297659	      7.54061385	      8.38624606	      0.14636761	      7.96717417	     -0.00000000	      0.00000000	     -2.33253649	      1.59728083	     -5.94458308	      0.00000000	     -0.00000000	     -0.00000000	      0.00000000	      0.00000000	     -0.00000000	     -0.00000000	     -0.00000000	      0.00000000	      0.00000000	      0.00000000	      0.00000000	      0.00000000	      0.00000000
      0.46000000	     -2.59460097	      8.64060514	    -89.80078471	      0.24152464	      0.93329152	     -0.18021571	     30.82033177	     -4.75437029	    -10.89568606	     53.28248824	      0.92995485	      4.69963769	      0.00000000	      0.00000000	      6.75720253	     -0.38862648	      7.67973672	      7.02269291	      0.12256911	      8.24234615	      0.00000000	      0.00000000	     -2.06709425	      1.91475827	     -5.99067967	      0.00000000	      0.00000000	      0.00000000	      0.00000000	      0.00000000	      0.00000000	      0.00000000	      0.00000000	      0.00000000	      0.00000000	      0.00000000	      0.00000000	      0.00000000	      0.00000000
      0.47000000	     -2.84703713	      8.50705743	    -89.78197078	      0.24097775	      0.93340185	     -0.16445428	     31.44449636	     -4.18588081	    -10.99599216	     49.68060167	      0.86709007	      5.49679945	      0.00000000	      0.00000000	      4.73025809	     -0.76104321	      7.64643978	      5.55798764	      0.09700518	      8.44975457	      0.00000000	      0.00000000	     -2.28436734	      2.21442290	     -6.08556151	      0.00000000	      0.00000000	      0.00000000	      0.00000000	      0.00000000	      0.00000000	      0.00000000	      0.00000000	      0.00000000	      0.00000000	      0.00000000	      0.00000000	      0.00000000	      0.00000000
      0.48000000	     -2.96253732	      8.60581383	    -89.76302650	      0.24036992	      0.93251293	     -0.14895391	     32.24854776	     -3.72188909	    -10.94519464	     45.86432932	      0.80048356	      6.14439825	      0.00000000	      0.00000000	      3.03897455	     -0.97824579	      7.74335586	      4.23804853	      0.07396790	      8.73944426	      0.00000000	      0.00000000	     -2.25368812	      2.34472050	     -6.15262814	      0.00000000	      0.00000000	      0.00000000	      0.00000000	      0.00000000	      0.00000000	      0.00000000	      0.00000000	      0.00000000	      0.00000000	      0.00000000	      0.00000000	      0.00000000	      0.00000000
      0.49000000	     -2.98605590	      8.58267285	    -89.72973689	      0.23976554	      0.93122406	     -0.13336314	     32.76561897	     -3.33658203	    -10.80718429	     41.75116108	      0.72869523	      6.55999537	      0.00000000	      0.00000000	      1.23081980	     -1.09487546	      7.82447061	      2.96381071	      0.05172826	      9.00648232	      0.00000000	      0.00000000	     -2.35789626	      2.35384940	     -6.29516098	      0.00000000	      0.00000000	      0.00000000	      0.00000000	      0.00000000	      0.00000000	      0.00000000	      0.00000000	      0.00000000	      0.00000000	      0.00000000	      0.00000000	      0.00000000	      0.00000000
      0.50000000	     -2.83037245	      8.83632246	    -89.69831567	      0.23913825	      0.92889964	     -0.11798651	     33.53946479	     -3.12986716	    -10.52645037	     37.53882706	      0.65517613	      6.89263508	      0.00000000	      0.00000000	     -0.19502271	     -1.00790069	      7.98134511	      1.84127696	      0.03213635	      9.37855123	      0.00000000	      0.00000000	     -2.14407023	      2.15045714	     -6.33743064	      0.00000000	      0.00000000	      0.00000000	      0.00000000	      0.00000000	      0.00000000	      0.00000000	      0.00000000	      0.00000000	      0.00000000	      0.00000000	      0.00000000	      0.00000000	      0.00000000
      0.51000000	     -2.78374895	      8.56384279	    -89.63567773	      0.23831709	      0.92699729	     -0.10204779	     33.45093007	     -2.78786550	    -10.32987277	     32.91215106	      0.57442540	      6.88163722	      0.00000000	      0.00000000	     -2.27464440	     -1.07448232	      8.05633200	      0.59772642	      0.01043229	      9.58386363	      0.00000000	      0.00000000	     -2.53000566	      2.05627219	     -6.59431020	      0.00000000	      0.00000000	      0.00000000	      0.00000000	      0.00000000	      0.00000000	      0.00000000	      0.00000000	      0.00000000	      0.00000000	      0.00000000	      0.00000000	      0.00000000	      0.00000000
